<?xml version="1.0" encoding="UTF-8" standalone="no"?>
<!-- Created with Inkscape (http://www.inkscape.org/) -->
<svg xmlns="http://www.w3.org/2000/svg" version="1.1" 
        viewBox="0,0 400,371" >

  <g
     transform="matrix(1.487827,0,0,1.487827,-115.8882,-1.429549)"
     id="g12">
    <path
       d="M 309.156,131.853 L 320.314,127.868 L 309.156,123.883 L 313.619,127.868"
       style="fill:#000000;fill-rule:evenodd;stroke:none"
       id="path18" />
    <path
       d="M 210,127.868 L 313.619,127.868"
       style="fill:none;stroke:#000000;stroke-width:0.99626398"
       id="path20" />
    <path
       d="M 242.221,131.355 L 242.221,124.381"
       style="fill:none;stroke:#000000;stroke-width:0.99626398"
       id="path28" />
    <path
       d="M 283.323,131.355 L 283.323,124.381"
       style="fill:none;stroke:#000000;stroke-width:0.99626398"
       id="path30" />
    <path
       d="M 244.3,140.706 C 244.3,139.52 243.471,138.509 242.38,138.509 C 241.896,138.509 241.463,138.673 241.1,139.033 L 241.1,137.09 C 241.303,137.15 241.637,137.209 241.962,137.209 C 243.187,137.209 243.912,136.312 243.912,136.183 C 243.912,136.123 243.874,136.073 243.786,136.073 C 243.776,136.073 243.756,136.073 243.706,136.103 C 243.507,136.193 243.019,136.408 242.351,136.408 C 241.952,136.408 241.494,136.334 241.026,136.113 C 240.946,136.083 240.926,136.083 240.906,136.083 C 240.806,136.083 240.8,136.163 240.8,136.322 L 240.8,139.271 C 240.8,139.45 240.806,139.53 240.946,139.53 C 241.016,139.53 241.036,139.5 241.075,139.44 C 241.185,139.281 241.553,138.708 242.36,138.708 C 242.878,138.708 243.127,139.191 243.207,139.38 C 243.366,139.749 243.4,140.137 243.4,140.635 C 243.4,140.984 243.387,141.581 243.147,142 C 242.908,142.389 242.539,142.627 242.081,142.627 C 241.354,142.627 240.786,142.109 240.616,141.532 C 240.646,141.542 240.676,141.608 240.785,141.608 C 241.114,141.608 241.299,141.331 241.299,141.064 C 241.299,140.825 241.124,140.608 240.785,140.608 C 240.646,140.608 240.299,140.674 240.299,141.104 C 240.299,141.961 240.986,142.927 242.1,142.927 C 243.256,142.927 244.299,141.971 244.299,140.705 L 244.3,140.706 z"
       style="fill:#000000;fill-rule:evenodd;stroke:none"
       id="path32" />
    <path
       d="M 281.2,136.332 C 281.2,136.093 281.229,136.108 281,136.108 C 280.382,136.71 279.506,136.708 279.187,136.708 L 279.187,137.008 C 279.387,137.008 279.979,137.019 280.5,136.76 L 280.5,141.921 C 280.5,142.28 280.47,142.408 279.565,142.408 L 279.246,142.408 L 279.246,142.708 C 279.595,142.678 280.461,142.678 280.86,142.678 C 281.259,142.678 282.125,142.678 282.474,142.708 L 282.474,142.408 L 282.155,142.408 C 281.258,142.408 281.199,142.296 281.199,141.921 L 281.2,136.332 z"
       style="fill:#000000;fill-rule:evenodd;stroke:none"
       id="path34" />
    <path
       d="M 287.9,139.52 C 287.9,138.723 287.848,137.926 287.484,137.189 C 287.026,136.233 286.209,136.108 285.79,136.108 C 285.192,136.108 284.465,136.359 284.057,137.258 C 283.738,137.945 283.7,138.723 283.7,139.52 C 283.7,140.267 283.739,141.164 284.137,141.921 C 284.565,142.728 285.293,142.927 285.781,142.927 C 286.319,142.927 287.076,142.718 287.514,141.771 C 287.833,141.084 287.9,140.307 287.9,139.519 L 287.9,139.52 z M 285.781,142.727 C 285.392,142.727 284.805,142.474 284.625,141.502 C 284.515,140.904 284.5,139.988 284.5,139.4 C 284.5,138.762 284.515,138.105 284.595,137.567 C 284.784,136.381 285.531,136.308 285.781,136.308 C 286.11,136.308 286.767,136.485 286.957,137.458 C 287.057,138.016 287.101,138.773 287.101,139.401 C 287.101,140.148 287.057,140.826 286.947,141.463 C 286.798,142.409 286.23,142.728 285.781,142.728 L 285.781,142.727 z"
       style="fill:#000000;fill-rule:evenodd;stroke:none"
       id="path36" />
<!-- tuuuuuuuuuuuuu -->
     <path
       d="M 209.34,133.562 L 209.34,122.175"
       style="fill:none;stroke:#000000;stroke-width:0.99626398"
       id="path30" />
    <!-- <path
       d="M 209.34,129.562 L 209.34,126.175"
       style="fill:none;stroke:#000000;stroke-width:0.39850599"
       id="path80" /> -->
    <path
       d="M 217.56,129.562 L 217.56,126.175"
       style="fill:none;stroke:#000000;stroke-width:0.39850599"
       id="path82" />
    <path
       d="M 225.781,129.562 L 225.781,126.175"
       style="fill:none;stroke:#000000;stroke-width:0.39850599"
       id="path84" />
    <path
       d="M 234.001,129.562 L 234.001,126.175"
       style="fill:none;stroke:#000000;stroke-width:0.39850599"
       id="path86" />
    <path
       d="M 242.221,129.562 L 242.221,126.175"
       style="fill:none;stroke:#000000;stroke-width:0.39850599"
       id="path88" />
    <path
       d="M 250.442,129.562 L 250.442,126.175"
       style="fill:none;stroke:#000000;stroke-width:0.39850599"
       id="path90" />
    <path
       d="M 258.662,129.562 L 258.662,126.175"
       style="fill:none;stroke:#000000;stroke-width:0.39850599"
       id="path92" />
    <path
       d="M 266.882,129.562 L 266.882,126.175"
       style="fill:none;stroke:#000000;stroke-width:0.39850599"
       id="path94" />
    <path
       d="M 275.102,129.562 L 275.102,126.175"
       style="fill:none;stroke:#000000;stroke-width:0.39850599"
       id="path96" />
    <path
       d="M 283.323,129.562 L 283.323,126.175"
       style="fill:none;stroke:#000000;stroke-width:0.39850599"
       id="path98" />
    <path
       d="M 291.543,129.562 L 291.543,126.175"
       style="fill:none;stroke:#000000;stroke-width:0.39850599"
       id="path100" />
    <path
       d="M 299.763,129.562 L 299.763,126.175"
       style="fill:none;stroke:#000000;stroke-width:0.39850599"
       id="path102" />
    <path
       d="M 307.983,129.562 L 307.983,126.175"
       style="fill:none;stroke:#000000;stroke-width:0.39850599"
       id="path104" />

 
 

   
    
    
    
    
   
   
   

  </g>
</svg>
