<?xml version="1.0" standalone="no"?>
<!DOCTYPE svg PUBLIC "-//W3C//DTD SVG 20010904//EN"
 "http://www.w3.org/TR/2001/REC-SVG-20010904/DTD/svg10.dtd">
 <svg
  version="1.1" xmlns="http://www.w3.org/2000/svg" xmlns:xlink="http://www.w3.org/1999/xlink"
	viewBox="0 0 500 500" enable-background="new 0 0 500 500" xml:space="preserve" preserveAspectRatio="none">
  	<g>
		<polyline fill="none" stroke="#000000" stroke-miterlimit="10" points="24.5,238 24.5,250.5 0.5,250.5 0.5,175"/>
		<polyline fill="none" stroke="#000000" stroke-miterlimit="10" points="49.5,238 49.5,250.5 24.5,250.5 24.5,238"/>
		<polyline fill="none" stroke="#000000" stroke-miterlimit="10" points="74.5,238 74.5,250.5 49.5,250.5 49.5,238"/>
		<polyline fill="none" stroke="#000000" stroke-miterlimit="10" points="99.5,238 99.5,250.5 74.5,250.5 74.5,238"/>
		<polyline fill="none" stroke="#000000" stroke-miterlimit="10" points="124.5,226 124.5,250.5 99.5,250.5 99.5,238"/>
		<polyline fill="none" stroke="#000000" stroke-miterlimit="10" points="149.5,238 149.5,250.5 124.5,250.5 124.5,226"/>
		<polyline fill="none" stroke="#000000" stroke-miterlimit="10" points="174.5,238 174.5,250.5 149.5,250.5 149.5,238"/>
		<polyline fill="none" stroke="#000000" stroke-miterlimit="10" points="199.5,238 199.5,250.5 174.5,250.5 174.5,238"/>
		<polyline fill="none" stroke="#000000" stroke-miterlimit="10" points="224.5,238 224.5,250.5 199.5,250.5 199.5,238"/>
		<polyline fill="none" stroke="#000000" stroke-miterlimit="10" points="249.5,226 249.5,250.5 224.5,250.5 224.5,238"/>
		<polyline fill="none" stroke="#000000" stroke-miterlimit="10" points="274.5,238 274.5,250.5 249.5,250.5 249.5,226"/>
		<polyline fill="none" stroke="#000000" stroke-miterlimit="10" points="299.5,238 299.5,250.5 274.5,250.5 274.5,238"/>
		<polyline fill="none" stroke="#000000" stroke-miterlimit="10" points="324.5,238 324.5,250.5 299.5,250.5 299.5,238"/>
		<polyline fill="none" stroke="#000000" stroke-miterlimit="10" points="349.5,238 349.5,250.5 324.5,250.5 324.5,238"/>
		<polyline fill="none" stroke="#000000" stroke-miterlimit="10" points="374.5,226 374.5,250.5 349.5,250.5 349.5,238"/>
		<polyline fill="none" stroke="#000000" stroke-miterlimit="10" points="399.5,238 399.5,250.5 374.5,250.5 374.5,226"/>
		<polyline fill="none" stroke="#000000" stroke-miterlimit="10" points="424.5,238 424.5,250.5 399.5,250.5 399.5,238"/>
		<polyline fill="none" stroke="#000000" stroke-miterlimit="10" points="449.5,238 449.5,250.5 424.5,250.5 424.5,238"/>
		<polyline fill="none" stroke="#000000" stroke-miterlimit="10" points="474.5,238 474.5,250.5 449.5,250.5 449.5,238"/>
		<polyline fill="none" stroke="#000000" stroke-miterlimit="10" points="499.5,226 499.5,250.5 474.5,250.5 474.5,238" marker-end="url(#arrow)"/>
  <defs>
    <marker id="arrow" markerWidth="10" markerHeight="10" refX="0" refY="3" orient="auto" markerUnits="strokeWidth">
      <path d="M0,0 L0,6 L9,3 z" fill="#000" />
    </marker>
  </defs>

  <!-- <line x1="295" y1="50" x2="95" y2="75" stroke="#000" stroke-width="5" marker-end="url(#arrow)" /> -->
		<!-- <polyline fill="none" stroke="#000000" stroke-miterlimit="10" points="499.5,0 50,250 50,238"/> -->
	</g>
<!-- <svg xmlns="http://www.w3.org/2000/svg" viewBox="-50 -100 200 200">
  <defs>
    <marker id='head' orient='auto' markerWidth='2' markerHeight='4'
            refX='0.1' refY='2'>
      <path d='M0,0 V4 L2,2 Z' fill='red' />
    </marker>
  </defs>    
  <path
    marker-end='url(#head)'
    stroke-width='5' fill='none' stroke='black'  
    d='M0,0 C45,45 45,-45 90,0'
    />    
</svg> -->
</svg>